<svg width="179" height="35" viewBox="0 0 179 35" fill="none" xmlns="http://www.w3.org/2000/svg">
<g clip-path="url(#clip0_3540_13602)">
<path d="M6.81177 15.075H22.2183V20.8014H6.81177V15.075ZM7.36037 28.1639H24.7784V34.0721H0V2.25878H24.1841V8.16697H7.36037V28.1639Z" fill="#101316"/>
<path d="M30.1683 34.0721V0.349976H37.3001V34.0721H30.1683Z" fill="#101316"/>
<path d="M56.1253 34.4357C53.3214 34.4357 50.8527 33.8903 48.7192 32.7996C46.6163 31.7089 44.9857 30.2242 43.8276 28.3457C42.6694 26.4369 42.0903 24.2706 42.0903 21.8467C42.0903 19.3925 42.6542 17.2262 43.7818 15.3477C44.94 13.4389 46.5096 11.9543 48.4906 10.8938C50.4717 9.80309 52.7118 9.25772 55.211 9.25772C57.6187 9.25772 59.7826 9.77279 61.7027 10.8029C63.6533 11.8028 65.1924 13.2571 66.3201 15.1659C67.4478 17.0444 68.0116 19.3016 68.0116 21.9376C68.0116 22.2103 67.9964 22.5284 67.9659 22.892C67.9354 23.2253 67.905 23.5434 67.8745 23.8464H31.6355V19.7107H64.1257L61.3827 20.9378C61.3827 19.6652 61.1237 18.5593 60.6055 17.6201C60.0874 16.6808 59.3712 15.9537 58.4569 15.4386C57.5425 14.8932 56.4758 14.6205 55.2567 14.6205C54.0376 14.6205 52.9556 14.8932 52.0108 15.4386C51.0965 15.9537 50.3803 16.696 49.8621 17.6655C49.344 18.6048 49.085 19.7258 49.085 21.0287V22.1194C49.085 23.4525 49.3745 24.6342 49.9536 25.6643C50.5631 26.6642 51.4013 27.4368 52.468 27.9821C53.5652 28.4972 54.8452 28.7548 56.3082 28.7548C57.6187 28.7548 58.7616 28.5578 59.7369 28.1639C60.7427 27.7701 61.657 27.1792 62.4799 26.3915L66.2744 30.4818C65.1467 31.7543 63.7295 32.739 62.0228 33.4359C60.316 34.1024 58.3502 34.4357 56.1253 34.4357Z" fill="#101316"/>
<path d="M84.646 34.4357C81.9945 34.4357 79.6324 33.9055 77.56 32.845C75.4875 31.7543 73.8569 30.2545 72.6683 28.3457C71.5101 26.4369 70.9311 24.2706 70.9311 21.8467C70.9311 19.3925 71.5101 17.2262 72.6683 15.3477C73.8569 13.4389 75.4875 11.9543 77.56 10.8938C79.6324 9.80309 81.9945 9.25772 84.646 9.25772C87.2366 9.25772 89.492 9.80309 91.4121 10.8938C93.3322 11.9543 94.7494 13.4843 95.6637 15.484L90.132 18.4381C89.492 17.2868 88.6843 16.4384 87.709 15.8931C86.7642 15.3477 85.728 15.075 84.6003 15.075C83.3812 15.075 82.284 15.3477 81.3087 15.8931C80.3334 16.4384 79.5562 17.2111 78.9772 18.2109C78.4286 19.2107 78.1543 20.4227 78.1543 21.8467C78.1543 23.2707 78.4286 24.4827 78.9772 25.4825C79.5562 26.4824 80.3334 27.255 81.3087 27.8004C82.284 28.3457 83.3812 28.6184 84.6003 28.6184C85.728 28.6184 86.7642 28.3609 87.709 27.8458C88.6843 27.3004 89.492 26.4369 90.132 25.2553L95.6637 28.2548C94.7494 30.2242 93.3322 31.7543 91.4121 32.845C89.492 33.9055 87.2366 34.4357 84.646 34.4357Z" fill="#101316"/>
<path d="M110.185 34.4357C107.289 34.4357 105.034 33.7085 103.419 32.2542C101.803 30.7696 100.996 28.573 100.996 25.6643V0.349976H108.128V25.5734C108.128 26.6036 108.402 27.4065 108.95 27.9821C109.499 28.5275 110.246 28.8002 111.191 28.8002C112.318 28.8002 113.278 28.4972 114.071 27.8913L115.991 32.8905C115.259 33.4056 114.375 33.7994 113.339 34.0721C112.333 34.3145 111.282 34.4357 110.185 34.4357ZM97.2013 15.6204V10.1667H114.254V15.6204H97.2013Z" fill="#101316"/>
<path d="M119.994 34.0721V9.6213H126.806V16.5293L125.846 14.5296C126.577 12.8026 127.751 11.4998 129.366 10.6211C130.981 9.71219 132.947 9.25772 135.264 9.25772V15.8022C134.959 15.7719 134.684 15.7567 134.441 15.7567C134.197 15.7264 133.938 15.7113 133.663 15.7113C131.713 15.7113 130.128 16.2718 128.909 17.3928C127.72 18.4836 127.126 20.1954 127.126 22.5284V34.0721H119.994Z" fill="#101316"/>
<path d="M151.029 34.4357C148.408 34.4357 146.076 33.8903 144.034 32.7996C142.023 31.7089 140.423 30.2242 139.234 28.3457C138.076 26.4369 137.497 24.2706 137.497 21.8467C137.497 19.3925 138.076 17.2262 139.234 15.3477C140.423 13.4389 142.023 11.9543 144.034 10.8938C146.076 9.80309 148.408 9.25772 151.029 9.25772C153.62 9.25772 155.936 9.80309 157.978 10.8938C160.02 11.9543 161.62 13.4237 162.778 15.3023C163.936 17.1808 164.515 19.3622 164.515 21.8467C164.515 24.2706 163.936 26.4369 162.778 28.3457C161.62 30.2242 160.02 31.7089 157.978 32.7996C155.936 33.8903 153.62 34.4357 151.029 34.4357ZM151.029 28.6184C152.218 28.6184 153.284 28.3457 154.229 27.8004C155.174 27.255 155.921 26.4824 156.469 25.4825C157.018 24.4524 157.292 23.2404 157.292 21.8467C157.292 20.4227 157.018 19.2107 156.469 18.2109C155.921 17.2111 155.174 16.4384 154.229 15.8931C153.284 15.3477 152.218 15.075 151.029 15.075C149.84 15.075 148.774 15.3477 147.829 15.8931C146.884 16.4384 146.122 17.2111 145.543 18.2109C144.994 19.2107 144.72 20.4227 144.72 21.8467C144.72 23.2404 144.994 24.4524 145.543 25.4825C146.122 26.4824 146.884 27.255 147.829 27.8004C148.774 28.3457 149.84 28.6184 151.029 28.6184Z" fill="#101316"/>
<path d="M173.08 34.6405C172.027 34.6405 171.09 34.419 170.269 33.976C169.461 33.533 168.818 32.9301 168.34 32.1671C167.875 31.3919 167.642 30.5121 167.642 29.5277C167.642 28.5309 167.875 27.6511 168.34 26.8882C168.818 26.1129 169.461 25.51 170.269 25.0793C171.09 24.6363 172.027 24.4148 173.08 24.4148C174.121 24.4148 175.052 24.6363 175.873 25.0793C176.693 25.51 177.336 26.1068 177.802 26.8697C178.267 27.6326 178.5 28.5186 178.5 29.5277C178.5 30.5121 178.267 31.3919 177.802 32.1671C177.336 32.9301 176.693 33.533 175.873 33.976C175.052 34.419 174.121 34.6405 173.08 34.6405ZM173.08 32.2779C173.558 32.2779 173.986 32.1671 174.366 31.9457C174.746 31.7242 175.046 31.4104 175.266 31.0043C175.487 30.5859 175.597 30.0937 175.597 29.5277C175.597 28.9493 175.487 28.4571 175.266 28.051C175.046 27.6449 174.746 27.3312 174.366 27.1097C173.986 26.8882 173.558 26.7774 173.08 26.7774C172.602 26.7774 172.174 26.8882 171.794 27.1097C171.414 27.3312 171.108 27.6449 170.876 28.051C170.655 28.4571 170.545 28.9493 170.545 29.5277C170.545 30.0937 170.655 30.5859 170.876 31.0043C171.108 31.4104 171.414 31.7242 171.794 31.9457C172.174 32.1671 172.602 32.2779 173.08 32.2779Z" fill="#1C4E8E"/>
</g>
<defs>
<clipPath id="clip0_3540_13602">
<rect width="178.5" height="35" fill="white"/>
</clipPath>
</defs>
</svg>
