<svg width="17" height="20" viewBox="0 0 17 20" fill="none" xmlns="http://www.w3.org/2000/svg">
<path d="M8.27245 5.74663C7.48246 5.74663 6.25997 4.8483 4.97248 4.87997C3.27249 4.90247 1.71417 5.86579 0.838338 7.39162C-0.925816 10.4541 0.383342 14.9774 2.10416 17.4665C2.94832 18.6782 3.94415 20.0415 5.26414 19.999C6.5308 19.9449 7.0058 19.1765 8.54329 19.1765C10.0691 19.1765 10.5016 19.999 11.8433 19.9665C13.2074 19.9449 14.0732 18.7332 14.9066 17.5099C15.8699 16.1032 16.2699 14.7391 16.2916 14.6641C16.2591 14.6532 13.6399 13.6466 13.6083 10.6166C13.5866 8.08328 15.6749 6.87162 15.7724 6.81745C14.5816 5.0758 12.7533 4.8808 12.1141 4.83747C10.4474 4.70747 9.05162 5.74579 8.27245 5.74579V5.74663ZM11.0874 3.19164C11.7899 2.34832 12.2541 1.16916 12.1249 0C11.1191 0.043333 9.90661 0.670829 9.18161 1.51499C8.53162 2.26165 7.96996 3.46331 8.12079 4.60997C9.23578 4.69663 10.3833 4.03664 11.0866 3.19248" fill="#101316"/>
</svg>
