<svg width="203" height="40" viewBox="0 0 203 40" fill="none" xmlns="http://www.w3.org/2000/svg">
<path d="M7.73908 17.2286H25.2429V23.7731H7.73908V17.2286ZM8.36237 32.1874H28.1516V38.9396H0V2.58151H27.4764V9.33373H8.36237V32.1874Z" fill="white"/>
<path d="M34.2752 38.9396V0.400024H42.3779V38.9396H34.2752Z" fill="white"/>
<path d="M63.7659 39.3552C60.5802 39.3552 57.7755 38.7319 55.3516 37.4853C52.9623 36.2387 51.1098 34.542 49.794 32.3952C48.4782 30.2137 47.8203 27.7379 47.8203 24.9677C47.8203 22.163 48.4609 19.6871 49.742 17.5403C51.0579 15.3588 52.8411 13.6621 55.0919 12.4501C57.3426 11.2036 59.8877 10.5803 62.7271 10.5803C65.4626 10.5803 67.9211 11.169 70.1026 12.3463C72.3187 13.4889 74.0674 15.151 75.3486 17.3325C76.6298 19.4794 77.2703 22.0591 77.2703 25.0716C77.2703 25.3832 77.253 25.7468 77.2184 26.1624C77.1838 26.5432 77.1492 26.9068 77.1145 27.2531H35.9422V22.5265H72.8554L69.739 23.9289C69.739 22.4746 69.4447 21.2107 68.856 20.1373C68.2674 19.0639 67.4536 18.2328 66.4148 17.6442C65.376 17.0209 64.1641 16.7092 62.779 16.7092C61.394 16.7092 60.1647 17.0209 59.0913 17.6442C58.0525 18.2328 57.2387 19.0812 56.6501 20.1892C56.0614 21.2627 55.7671 22.5439 55.7671 24.0328V25.2794C55.7671 26.8029 56.0961 28.1534 56.754 29.3307C57.4465 30.4734 58.3987 31.3564 59.6107 31.9796C60.8572 32.5683 62.3116 32.8626 63.9737 32.8626C65.4626 32.8626 66.7611 32.6376 67.8692 32.1874C69.0119 31.7373 70.0507 31.062 70.9856 30.1617L75.2966 34.8364C74.0154 36.2907 72.4053 37.4161 70.4662 38.2125C68.5271 38.9743 66.2937 39.3552 63.7659 39.3552Z" fill="white"/>
<path d="M96.1693 39.3552C93.1567 39.3552 90.4732 38.7492 88.1185 37.5372C85.7639 36.2907 83.9114 34.5767 82.5609 32.3952C81.2451 30.2137 80.5872 27.7379 80.5872 24.9677C80.5872 22.163 81.2451 19.6871 82.5609 17.5403C83.9114 15.3588 85.7639 13.6621 88.1185 12.4501C90.4732 11.2036 93.1567 10.5803 96.1693 10.5803C99.1125 10.5803 101.675 11.2036 103.856 12.4501C106.038 13.6621 107.648 15.4107 108.687 17.6961L102.402 21.0722C101.675 19.7564 100.757 18.7868 99.6493 18.1636C98.5758 17.5403 97.3985 17.2286 96.1173 17.2286C94.7322 17.2286 93.4857 17.5403 92.3776 18.1636C91.2696 18.7868 90.3866 19.6698 89.7287 20.8125C89.1054 21.9552 88.7938 23.3403 88.7938 24.9677C88.7938 26.5952 89.1054 27.9803 89.7287 29.1229C90.3866 30.2656 91.2696 31.1486 92.3776 31.7719C93.4857 32.3952 94.7322 32.7068 96.1173 32.7068C97.3985 32.7068 98.5758 32.4125 99.6493 31.8238C100.757 31.2005 101.675 30.2137 102.402 28.8632L108.687 32.2913C107.648 34.542 106.038 36.2907 103.856 37.5372C101.675 38.7492 99.1125 39.3552 96.1693 39.3552Z" fill="white"/>
<path d="M125.185 39.3552C121.895 39.3552 119.333 38.5241 117.498 36.862C115.662 35.1653 114.745 32.6549 114.745 29.3307V0.400024H122.847V29.2268C122.847 30.4041 123.159 31.3217 123.782 31.9796C124.406 32.6029 125.254 32.9146 126.327 32.9146C127.609 32.9146 128.699 32.5683 129.6 31.8758L131.781 37.5892C130.95 38.1778 129.946 38.628 128.769 38.9396C127.626 39.2166 126.431 39.3552 125.185 39.3552ZM110.434 17.8519V11.6191H129.807V17.8519H110.434Z" fill="white"/>
<path d="M136.33 38.9396V10.9958H144.069V18.8907L142.978 16.6054C143.809 14.6316 145.142 13.1427 146.977 12.1385C148.813 11.0997 151.046 10.5803 153.678 10.5803V18.0597C153.331 18.0251 153.02 18.0077 152.743 18.0077C152.466 17.9731 152.171 17.9558 151.86 17.9558C149.644 17.9558 147.843 18.5964 146.458 19.8776C145.107 21.1242 144.432 23.0806 144.432 25.7468V38.9396H136.33Z" fill="white"/>
<path d="M171.589 39.3552C168.611 39.3552 165.962 38.7319 163.642 37.4853C161.357 36.2387 159.539 34.542 158.189 32.3952C156.873 30.2137 156.215 27.7379 156.215 24.9677C156.215 22.163 156.873 19.6871 158.189 17.5403C159.539 15.3588 161.357 13.6621 163.642 12.4501C165.962 11.2036 168.611 10.5803 171.589 10.5803C174.533 10.5803 177.164 11.2036 179.484 12.4501C181.804 13.6621 183.622 15.3415 184.938 17.4883C186.254 19.6352 186.912 22.1283 186.912 24.9677C186.912 27.7379 186.254 30.2137 184.938 32.3952C183.622 34.542 181.804 36.2387 179.484 37.4853C177.164 38.7319 174.533 39.3552 171.589 39.3552ZM171.589 32.7068C172.94 32.7068 174.152 32.3952 175.225 31.7719C176.298 31.1486 177.147 30.2656 177.77 29.1229C178.393 27.9456 178.705 26.5606 178.705 24.9677C178.705 23.3403 178.393 21.9552 177.77 20.8125C177.147 19.6698 176.298 18.7868 175.225 18.1636C174.152 17.5403 172.94 17.2286 171.589 17.2286C170.239 17.2286 169.027 17.5403 167.953 18.1636C166.88 18.7868 166.014 19.6698 165.356 20.8125C164.733 21.9552 164.421 23.3403 164.421 24.9677C164.421 26.5606 164.733 27.9456 165.356 29.1229C166.014 30.2656 166.88 31.1486 167.953 31.7719C169.027 32.3952 170.239 32.7068 171.589 32.7068Z" fill="white"/>
<path d="M196.643 39.5891C195.446 39.5891 194.381 39.336 193.449 38.8297C192.531 38.3234 191.8 37.6343 191.258 36.7624C190.729 35.8764 190.464 34.8709 190.464 33.7459C190.464 32.6067 190.729 31.6012 191.258 30.7293C191.8 29.8433 192.531 29.1542 193.449 28.662C194.381 28.1557 195.446 27.9026 196.643 27.9026C197.825 27.9026 198.883 28.1557 199.815 28.662C200.748 29.1542 201.478 29.8363 202.007 30.7082C202.536 31.5801 202.8 32.5927 202.8 33.7459C202.8 34.8709 202.536 35.8764 202.007 36.7624C201.478 37.6343 200.748 38.3234 199.815 38.8297C198.883 39.336 197.825 39.5891 196.643 39.5891ZM196.643 36.889C197.185 36.889 197.672 36.7624 198.104 36.5093C198.535 36.2561 198.876 35.8975 199.127 35.4334C199.377 34.9553 199.502 34.3928 199.502 33.7459C199.502 33.0849 199.377 32.5224 199.127 32.0583C198.876 31.5942 198.535 31.2356 198.104 30.9824C197.672 30.7293 197.185 30.6027 196.643 30.6027C196.1 30.6027 195.613 30.7293 195.182 30.9824C194.75 31.2356 194.402 31.5942 194.138 32.0583C193.887 32.5224 193.762 33.0849 193.762 33.7459C193.762 34.3928 193.887 34.9553 194.138 35.4334C194.402 35.8975 194.75 36.2561 195.182 36.5093C195.613 36.7624 196.1 36.889 196.643 36.889Z" fill="white"/>
</svg>
