<svg width="36" height="24" viewBox="0 0 36 24" fill="none" xmlns="http://www.w3.org/2000/svg">
<rect width="36" height="24" rx="2.4" fill="white"/>
<path fill-rule="evenodd" clip-rule="evenodd" d="M16.9531 14.9687V11.9417H18.5154C19.1556 11.9417 19.6959 11.7272 20.1364 11.3041L20.2421 11.1968C21.0468 10.3209 20.9939 8.95639 20.1364 8.14601C19.7077 7.71699 19.1203 7.4846 18.5154 7.49652H16.0075V14.9687H16.9531ZM16.9532 11.024V8.41413H18.5392C18.8799 8.41413 19.203 8.54522 19.4439 8.78357C19.9549 9.28409 19.9667 10.1183 19.4732 10.6367C19.2324 10.8929 18.8917 11.0359 18.5392 11.024H16.9532Z" fill="#3C4043"/>
<path fill-rule="evenodd" clip-rule="evenodd" d="M24.653 10.2554C24.2477 9.87998 23.6956 9.6893 22.9967 9.6893C22.0981 9.6893 21.4227 10.023 20.9763 10.6844L21.8103 11.2147C22.1157 10.7619 22.5327 10.5354 23.0613 10.5354C23.3961 10.5354 23.7191 10.6606 23.9717 10.887C24.2184 11.1015 24.3593 11.4114 24.3593 11.7391V11.9596C23.9952 11.757 23.5371 11.6497 22.9732 11.6497C22.3154 11.6497 21.7868 11.8046 21.3933 12.1204C20.9998 12.4362 20.8001 12.8533 20.8001 13.3837C20.7884 13.8663 20.9939 14.3251 21.3581 14.635C21.7281 14.9687 22.198 15.1355 22.75 15.1355C23.402 15.1355 23.9188 14.8435 24.3123 14.2596H24.3535V14.9687H25.2579V11.8165C25.2579 11.1551 25.0582 10.6308 24.653 10.2554ZM22.0865 14.0272C21.8927 13.8842 21.7752 13.6518 21.7752 13.4015C21.7752 13.1215 21.9044 12.8891 22.157 12.7044C22.4155 12.5197 22.7386 12.4243 23.1204 12.4243C23.6491 12.4184 24.0603 12.5375 24.354 12.7759C24.354 13.1811 24.1954 13.5326 23.884 13.8306C23.6021 14.1166 23.2203 14.2775 22.8208 14.2775C22.5565 14.2834 22.298 14.194 22.0865 14.0272Z" fill="#3C4043"/>
<path d="M27.2901 17.2151L30.4499 9.85615H29.4221L27.9597 13.5267H27.942L26.4444 9.85615H25.4165L27.4898 14.6409L26.3151 17.2151H27.2901Z" fill="#3C4043"/>
<path d="M13.6885 11.2862C13.6885 10.9942 13.665 10.7023 13.6181 10.4163H9.6301V12.0668H11.9148C11.8208 12.5971 11.5154 13.0738 11.0691 13.3717V14.4443H12.4317C13.2304 13.6995 13.6885 12.5971 13.6885 11.2862Z" fill="#4285F4"/>
<path d="M9.63027 15.4811C10.7697 15.4811 11.7327 15.0998 12.4317 14.4443L11.0691 13.3717C10.6873 13.6339 10.2 13.7829 9.63027 13.7829C8.52609 13.7829 7.59224 13.0261 7.25746 12.0132H5.85375V13.1215C6.57029 14.5694 8.03274 15.4811 9.63027 15.4811Z" fill="#34A853"/>
<path d="M7.25746 12.0132C7.08124 11.4829 7.0814 10.9049 7.25762 10.3686V9.26625H5.85369C5.24864 10.4759 5.24864 11.9059 5.85369 13.1155L7.25746 12.0132Z" fill="#FBBC04"/>
<path d="M9.63027 8.59887C10.2352 8.58695 10.8167 8.81934 11.2513 9.2424L12.4612 8.01492C11.6918 7.28796 10.6816 6.88873 9.63027 6.90065C8.03274 6.90065 6.57023 7.8183 5.85369 9.26625L7.25746 10.3745C7.59224 9.35562 8.52609 8.59887 9.63027 8.59887Z" fill="#EA4335"/>
</svg>
