<svg width="36" height="24" viewBox="0 0 36 24" fill="none" xmlns="http://www.w3.org/2000/svg">
<rect width="36" height="24" rx="2.4" fill="white"/>
<path fill-rule="evenodd" clip-rule="evenodd" d="M23.4892 8.23747C23.4746 8.33173 23.4577 8.42806 23.4389 8.52705C22.7901 11.8718 20.5703 13.0273 17.7353 13.0273H16.2918C15.945 13.0273 15.6528 13.28 15.5989 13.6234L14.6505 19.6635C14.6154 19.8891 14.7885 20.0922 15.015 20.0922H17.5753C17.8784 20.0922 18.1359 19.8711 18.1837 19.5709L18.2088 19.4403L18.6909 16.3689L18.7219 16.2004C18.769 15.8992 19.0272 15.6779 19.3303 15.6779H19.7131C22.1936 15.6779 24.1355 14.6668 24.703 11.7407C24.94 10.5184 24.8173 9.4977 24.19 8.77989C24.0001 8.56348 23.7646 8.38381 23.4892 8.23747Z" fill="#298FC2"/>
<path fill-rule="evenodd" clip-rule="evenodd" d="M22.8102 7.96579C22.711 7.93673 22.6087 7.91047 22.5038 7.88672C22.3983 7.86356 22.2904 7.84306 22.1791 7.82506C21.7899 7.76192 21.3634 7.73198 20.9066 7.73198H17.0504C16.9553 7.73198 16.8651 7.75351 16.7845 7.79246C16.6066 7.87831 16.4745 8.04737 16.4424 8.25433L15.622 13.4714L15.5985 13.6235C15.6524 13.2801 15.9447 13.0274 16.2914 13.0274H17.7349C20.5699 13.0274 22.7897 11.8713 23.4385 8.52709C23.4579 8.42811 23.4742 8.33178 23.4888 8.23752C23.3247 8.15004 23.1469 8.07525 22.9555 8.01152C22.9082 7.99574 22.8594 7.98054 22.8102 7.96579Z" fill="#22284F"/>
<path fill-rule="evenodd" clip-rule="evenodd" d="M16.4424 8.25433C16.4745 8.04737 16.6067 7.87833 16.7847 7.79306C16.8659 7.75397 16.9555 7.73243 17.0506 7.73243H20.9068C21.3636 7.73243 21.7901 7.76253 22.1793 7.82566C22.2905 7.84351 22.3985 7.86416 22.504 7.88732C22.6089 7.91093 22.7112 7.93733 22.8104 7.96625C22.8596 7.981 22.9083 7.99634 22.9561 8.01153C23.1475 8.07526 23.3255 8.15064 23.4896 8.23753C23.6826 7.00149 23.488 6.15991 22.8224 5.39784C22.0885 4.55876 20.7642 4.19971 19.0694 4.19971H14.1493C13.8032 4.19971 13.5079 4.4524 13.4544 4.79641L11.4051 17.8388C11.3647 18.0968 11.5629 18.3296 11.8221 18.3296H14.8596L16.4424 8.25433Z" fill="#28356A"/>
</svg>
