<svg width="8" height="8" viewBox="0 0 8 8" fill="none" xmlns="http://www.w3.org/2000/svg">
<path fill-rule="evenodd" clip-rule="evenodd" d="M6.78409 7.5797C7.00376 7.79937 7.35992 7.79937 7.57959 7.5797C7.79926 7.36003 7.79926 7.00388 7.57959 6.78421L4.79537 3.99999L7.57958 1.21577C7.79925 0.996104 7.79925 0.639949 7.57958 0.420279C7.35991 0.200609 7.00375 0.200609 6.78408 0.420279L3.99987 3.20449L1.21563 0.420246C0.995955 0.200576 0.6398 0.200576 0.42013 0.420246C0.20046 0.639916 0.20046 0.996071 0.42013 1.21574L3.20438 3.99999L0.420124 6.78424C0.200453 7.00391 0.200454 7.36006 0.420124 7.57973C0.639794 7.7994 0.995949 7.7994 1.21562 7.57973L3.99987 4.79548L6.78409 7.5797Z" fill="#101316"/>
</svg>
