<svg width="80" height="20" viewBox="0 0 80 20" fill="none" xmlns="http://www.w3.org/2000/svg">
<path d="M8.36076 2.72601C9.03133 1.31334 10.9688 1.31333 11.6394 2.72601L12.7983 5.16749C13.0646 5.72846 13.5793 6.11728 14.1748 6.20724L16.7662 6.59875C18.2656 6.82528 18.8644 8.74112 17.7794 9.84074L15.9042 11.7412C15.4733 12.1778 15.2767 12.807 15.3784 13.4235L15.8211 16.107C16.0772 17.6596 14.5098 18.8437 13.1686 18.1106L10.8508 16.8437C10.3182 16.5526 9.68196 16.5526 9.14939 16.8437L6.83155 18.1106C5.49041 18.8437 3.92293 17.6596 4.17907 16.107L4.62174 13.4235C4.72345 12.807 4.52684 12.1778 4.09598 11.7412L2.22081 9.84074C1.1358 8.74113 1.73452 6.82528 3.23397 6.59875L5.82539 6.20724C6.42082 6.11728 6.93555 5.72846 7.20184 5.16749L8.36076 2.72601Z" stroke="#101316" stroke-opacity="0.8" stroke-linejoin="round"/>
<path d="M28.3608 2.72601C29.0313 1.31334 30.9688 1.31333 31.6394 2.72601L32.7983 5.16749C33.0646 5.72846 33.5793 6.11728 34.1748 6.20724L36.7662 6.59875C38.2656 6.82528 38.8644 8.74112 37.7794 9.84074L35.9042 11.7412C35.4733 12.1778 35.2767 12.807 35.3784 13.4235L35.8211 16.107C36.0772 17.6596 34.5098 18.8437 33.1686 18.1106L30.8508 16.8437C30.3182 16.5526 29.682 16.5526 29.1494 16.8437L26.8316 18.1106C25.4904 18.8437 23.9229 17.6596 24.1791 16.107L24.6217 13.4235C24.7235 12.807 24.5268 12.1778 24.096 11.7412L22.2208 9.84074C21.1358 8.74113 21.7345 6.82528 23.234 6.59875L25.8254 6.20724C26.4208 6.11728 26.9356 5.72846 27.2018 5.16749L28.3608 2.72601Z" stroke="#101316" stroke-opacity="0.8" stroke-linejoin="round"/>
<path d="M48.3608 2.72601C49.0313 1.31334 50.9688 1.31333 51.6394 2.72601L52.7983 5.16749C53.0646 5.72846 53.5793 6.11728 54.1748 6.20724L56.7662 6.59875C58.2656 6.82528 58.8644 8.74112 57.7794 9.84074L55.9042 11.7412C55.4733 12.1778 55.2767 12.807 55.3784 13.4235L55.8211 16.107C56.0772 17.6596 54.5098 18.8437 53.1686 18.1106L50.8508 16.8437C50.3182 16.5526 49.682 16.5526 49.1494 16.8437L46.8316 18.1106C45.4904 18.8437 43.9229 17.6596 44.1791 16.107L44.6217 13.4235C44.7235 12.807 44.5268 12.1778 44.096 11.7412L42.2208 9.84074C41.1358 8.74113 41.7345 6.82528 43.234 6.59875L45.8254 6.20724C46.4208 6.11728 46.9356 5.72846 47.2018 5.16749L48.3608 2.72601Z" stroke="#101316" stroke-opacity="0.8" stroke-linejoin="round"/>
<path d="M68.3608 2.72601C69.0313 1.31334 70.9688 1.31333 71.6394 2.72601L72.7983 5.16749C73.0646 5.72846 73.5793 6.11728 74.1748 6.20724L76.7662 6.59875C78.2656 6.82528 78.8644 8.74112 77.7794 9.84074L75.9042 11.7412C75.4733 12.1778 75.2767 12.807 75.3784 13.4235L75.8211 16.107C76.0772 17.6596 74.5098 18.8437 73.1686 18.1106L70.8508 16.8437C70.3182 16.5526 69.682 16.5526 69.1494 16.8437L66.8316 18.1106C65.4904 18.8437 63.9229 17.6596 64.1791 16.107L64.6217 13.4235C64.7235 12.807 64.5268 12.1778 64.096 11.7412L62.2208 9.84074C61.1358 8.74113 61.7345 6.82528 63.234 6.59875L65.8254 6.20724C66.4208 6.11728 66.9356 5.72846 67.2018 5.16749L68.3608 2.72601Z" stroke="#101316" stroke-opacity="0.8" stroke-linejoin="round"/>
</svg>
