<svg width="120" height="24" viewBox="0 0 120 24" fill="none" xmlns="http://www.w3.org/2000/svg">
<path d="M10.0328 3.27141C10.8375 1.5762 13.1625 1.5762 13.9672 3.27141L15.3579 6.20118C15.6774 6.87435 16.2951 7.34094 17.0096 7.44888L20.1193 7.91869C21.9187 8.19053 22.6371 10.4895 21.3351 11.8091L19.0849 14.0896C18.5679 14.6136 18.332 15.3685 18.454 16.1084L18.9852 19.3285C19.2926 21.1918 17.4116 22.6126 15.8022 21.7329L13.0208 20.2126C12.3817 19.8633 11.6183 19.8633 10.9792 20.2126L8.19776 21.7329C6.58839 22.6126 4.70742 21.1918 5.01479 19.3286L5.54599 16.1084C5.66804 15.3685 5.43211 14.6136 4.91508 14.0896L2.66488 11.8091C1.36287 10.4895 2.08133 8.19053 3.88066 7.91869L6.99037 7.44888C7.70489 7.34094 8.32257 6.87435 8.64211 6.20118L10.0328 3.27141Z" fill="#FFC11F"/>
<path d="M34.0328 3.27141C34.8375 1.5762 37.1625 1.5762 37.9672 3.27141L39.3579 6.20118C39.6774 6.87435 40.2951 7.34094 41.0096 7.44888L44.1193 7.91869C45.9187 8.19053 46.6371 10.4895 45.3351 11.8091L43.0849 14.0896C42.5679 14.6136 42.332 15.3685 42.454 16.1084L42.9852 19.3285C43.2926 21.1918 41.4116 22.6126 39.8022 21.7329L37.0208 20.2126C36.3817 19.8633 35.6183 19.8633 34.9792 20.2126L32.1978 21.7329C30.5884 22.6126 28.7074 21.1918 29.0148 19.3286L29.546 16.1084C29.668 15.3685 29.4321 14.6136 28.9151 14.0896L26.6649 11.8091C25.3629 10.4895 26.0813 8.19053 27.8807 7.91869L30.9904 7.44888C31.7049 7.34094 32.3226 6.87435 32.6421 6.20118L34.0328 3.27141Z" fill="#FFC11F"/>
<path d="M58.0328 3.27141C58.8375 1.5762 61.1625 1.5762 61.9672 3.27141L63.3579 6.20118C63.6774 6.87435 64.2951 7.34094 65.0096 7.44888L68.1193 7.91869C69.9187 8.19053 70.6371 10.4895 69.3351 11.8091L67.0849 14.0896C66.5679 14.6136 66.332 15.3685 66.454 16.1084L66.9852 19.3285C67.2926 21.1918 65.4116 22.6126 63.8022 21.7329L61.0208 20.2126C60.3817 19.8633 59.6183 19.8633 58.9792 20.2126L56.1978 21.7329C54.5884 22.6126 52.7074 21.1918 53.0148 19.3286L53.546 16.1084C53.668 15.3685 53.4321 14.6136 52.9151 14.0896L50.6649 11.8091C49.3629 10.4895 50.0813 8.19053 51.8807 7.91869L54.9904 7.44888C55.7049 7.34094 56.3226 6.87435 56.6421 6.20118L58.0328 3.27141Z" fill="#FFC11F"/>
<path d="M82.0328 3.27141C82.8375 1.5762 85.1625 1.5762 85.9672 3.27141L87.3579 6.20118C87.6774 6.87435 88.2951 7.34094 89.0096 7.44888L92.1193 7.91869C93.9187 8.19053 94.6371 10.4895 93.3351 11.8091L91.0849 14.0896C90.5679 14.6136 90.332 15.3685 90.454 16.1084L90.9852 19.3285C91.2926 21.1918 89.4116 22.6126 87.8022 21.7329L85.0208 20.2126C84.3817 19.8633 83.6183 19.8633 82.9792 20.2126L80.1978 21.7329C78.5884 22.6126 76.7074 21.1918 77.0148 19.3286L77.546 16.1084C77.668 15.3685 77.4321 14.6136 76.9151 14.0896L74.6649 11.8091C73.3629 10.4895 74.0813 8.19053 75.8807 7.91869L78.9904 7.44888C79.7049 7.34094 80.3226 6.87435 80.6421 6.20118L82.0328 3.27141Z" fill="#FFC11F"/>
<path d="M106.033 3.27141C106.837 1.5762 109.162 1.5762 109.967 3.27141L111.358 6.20118C111.677 6.87435 112.295 7.34094 113.01 7.44888L116.119 7.91869C117.919 8.19053 118.637 10.4895 117.335 11.8091L115.085 14.0896C114.568 14.6136 114.332 15.3685 114.454 16.1084L114.985 19.3285C115.293 21.1918 113.412 22.6126 111.802 21.7329L109.021 20.2126C108.382 19.8633 107.618 19.8633 106.979 20.2126L104.198 21.7329C102.588 22.6126 100.707 21.1918 101.015 19.3286L101.546 16.1084C101.668 15.3685 101.432 14.6136 100.915 14.0896L98.6649 11.8091C97.3629 10.4895 98.0813 8.19053 99.8807 7.91869L102.99 7.44888C103.705 7.34094 104.323 6.87435 104.642 6.20118L106.033 3.27141Z" fill="#FFC11F"/>
</svg>
