<svg width="36" height="24" viewBox="0 0 36 24" fill="none" xmlns="http://www.w3.org/2000/svg">
<rect width="36" height="24" rx="2.4" fill="white"/>
<path d="M24.3742 7.86989C23.9308 7.69398 23.2275 7.49976 22.3579 7.49976C20.138 7.49976 18.5748 8.68353 18.5652 10.376C18.5467 11.6247 19.6844 12.3182 20.5353 12.7346C21.405 13.16 21.7007 13.4377 21.7007 13.8169C21.6918 14.3993 20.9979 14.6678 20.3507 14.6678C19.4532 14.6678 18.9723 14.5294 18.2415 14.2054L17.9455 14.0665L17.6309 16.018C18.1582 16.2582 19.1295 16.4714 20.138 16.4807C22.4967 16.4807 24.0323 15.3153 24.0505 13.5117C24.0595 12.522 23.4587 11.7637 22.1636 11.144C21.3774 10.7462 20.8959 10.478 20.8959 10.071C20.9051 9.70099 21.3031 9.32201 22.1906 9.32201C22.9214 9.30345 23.4584 9.47911 23.8651 9.65489L24.0685 9.74721L24.3742 7.86989Z" fill="#3362AB"/>
<path d="M16.2252 16.3512H13.9772L15.3833 7.65735H17.6311L16.2252 16.3512Z" fill="#3362AB"/>
<path fill-rule="evenodd" clip-rule="evenodd" d="M30.1367 7.65735H28.3979C27.8617 7.65735 27.4543 7.81445 27.223 8.37867L23.8839 16.351H26.2426C26.2426 16.351 26.631 15.278 26.7144 15.0469H29.6006C29.6651 15.3521 29.8688 16.351 29.8688 16.351H31.9502L30.1367 7.65735ZM27.3619 13.2712C27.547 12.7718 28.2593 10.8388 28.2593 10.8388C28.2556 10.8462 28.2846 10.7659 28.3278 10.6462L28.3283 10.6447L28.3286 10.6437C28.3932 10.4649 28.489 10.1994 28.5551 10.0065L28.7122 10.7556C28.7122 10.7556 29.1379 12.8366 29.2303 13.2712H27.3619Z" fill="#3362AB"/>
<path d="M12.0997 7.65735L9.89818 13.5857L9.65761 12.3834L9.65739 12.3826L8.87138 8.38814C8.74194 7.83288 8.34415 7.67566 7.85392 7.65735H4.2372L4.2002 7.83301C5.0823 8.05858 5.87126 8.38363 6.56256 8.78778L8.56615 16.3419H10.9433L14.4767 7.65735H12.0997Z" fill="#3362AB"/>
</svg>
