<svg width="36" height="24" viewBox="0 0 36 24" fill="none" xmlns="http://www.w3.org/2000/svg">
<rect width="36" height="24" rx="2.4" fill="white"/>
<path d="M30 11.9166C30 16.0161 26.6833 19.3329 22.5837 19.3329C20.8532 19.3329 19.267 18.7354 18.0103 17.7466C19.7408 16.3869 20.8326 14.2857 20.8326 11.9166C20.8326 9.54746 19.7202 7.44617 18.0103 6.08651C19.267 5.09767 20.8532 4.50024 22.5837 4.50024C26.6833 4.50024 30 7.83758 30 11.9166Z" fill="#F79E1B"/>
<path d="M18.0103 6.08651C18.0103 6.08651 18.0103 6.08651 18.0103 6.08651C19.7202 7.44617 20.8326 9.54746 20.8326 11.9166C20.8326 14.2857 19.7408 16.3869 18.0103 17.7466L17.9896 17.7466C16.2798 16.4075 15.1674 14.2857 15.1674 11.9166C15.1674 9.5475 16.2798 7.44621 17.9897 6.08656C17.9897 6.08654 17.9897 6.08657 17.9897 6.08656L18.0103 6.08651Z" fill="#FF5F00"/>
<path d="M15.1674 11.9166C15.1674 9.5475 16.2798 7.44621 17.9897 6.08656C16.733 5.09771 15.1468 4.50028 13.4163 4.50028C9.31674 4.50028 6 7.81701 6 11.9166C6 16.0162 9.31674 19.3329 13.4163 19.3329C15.1468 19.3329 16.733 18.7354 17.9896 17.7466C16.2798 16.4075 15.1674 14.2857 15.1674 11.9166Z" fill="#EB001B"/>
</svg>
