<svg width="25" height="24" viewBox="0 0 25 24" fill="none" xmlns="http://www.w3.org/2000/svg">
<path fill-rule="evenodd" clip-rule="evenodd" d="M21.3123 12.2047C21.3123 11.5665 21.255 10.9529 21.1486 10.3638H12.6721V13.8452H17.5158C17.3072 14.9702 16.6731 15.9234 15.7199 16.5616V18.8198H18.6286C20.3304 17.253 21.3123 14.9457 21.3123 12.2047Z" fill="#4285F4"/>
<path fill-rule="evenodd" clip-rule="evenodd" d="M12.6722 21.0001C15.1023 21.0001 17.1396 20.1942 18.6287 18.8196L15.72 16.5614C14.9141 17.1014 13.8832 17.4205 12.6722 17.4205C10.3281 17.4205 8.344 15.8373 7.63626 13.71H4.62939V16.0418C6.11033 18.9832 9.15401 21.0001 12.6722 21.0001Z" fill="#34A853"/>
<path fill-rule="evenodd" clip-rule="evenodd" d="M7.63627 13.7102C7.45627 13.1702 7.35399 12.5933 7.35399 12.0001C7.35399 11.4069 7.45627 10.8301 7.63627 10.2901V7.95825H4.62941C4.01985 9.17327 3.67212 10.5478 3.67212 12.0001C3.67212 13.4524 4.01985 14.827 4.62941 16.042L7.63627 13.7102Z" fill="#FBBC05"/>
<path fill-rule="evenodd" clip-rule="evenodd" d="M12.6722 6.5796C13.9936 6.5796 15.18 7.0337 16.1128 7.92553L18.6942 5.34413C17.1355 3.89183 15.0982 3 12.6722 3C9.15401 3 6.11033 5.01685 4.62939 7.95826L7.63626 10.2901C8.344 8.16281 10.3281 6.5796 12.6722 6.5796Z" fill="#EA4335"/>
</svg>
