<svg width="60" height="20" viewBox="0 0 60 20" fill="none" xmlns="http://www.w3.org/2000/svg">
<path d="M8.36064 2.72601C9.03121 1.31334 10.9687 1.31333 11.6393 2.72601L12.7982 5.16749C13.0645 5.72846 13.5792 6.11728 14.1746 6.20724L16.7661 6.59875C18.2655 6.82528 18.8642 8.74112 17.7792 9.84074L15.9041 11.7412C15.4732 12.1778 15.2766 12.807 15.3783 13.4235L15.821 16.107C16.0771 17.6596 14.5096 18.8437 13.1685 18.1106L10.8506 16.8437C10.3181 16.5526 9.68184 16.5526 9.14927 16.8437L6.83143 18.1106C5.49029 18.8437 3.92281 17.6596 4.17895 16.107L4.62162 13.4235C4.72333 12.807 4.52672 12.1778 4.09586 11.7412L2.22069 9.84074C1.13568 8.74113 1.7344 6.82528 3.23384 6.59875L5.82527 6.20724C6.4207 6.11728 6.93543 5.72846 7.20172 5.16749L8.36064 2.72601Z" stroke="#101316" stroke-opacity="0.8" stroke-linejoin="round"/>
<path d="M28.3606 2.72601C29.0312 1.31334 30.9687 1.31333 31.6393 2.72601L32.7982 5.16749C33.0645 5.72846 33.5792 6.11728 34.1746 6.20724L36.7661 6.59875C38.2655 6.82528 38.8642 8.74112 37.7792 9.84074L35.9041 11.7412C35.4732 12.1778 35.2766 12.807 35.3783 13.4235L35.821 16.107C36.0771 17.6596 34.5096 18.8437 33.1685 18.1106L30.8506 16.8437C30.3181 16.5526 29.6818 16.5526 29.1493 16.8437L26.8314 18.1106C25.4903 18.8437 23.9228 17.6596 24.1789 16.107L24.6216 13.4235C24.7233 12.807 24.5267 12.1778 24.0959 11.7412L22.2207 9.84074C21.1357 8.74113 21.7344 6.82528 23.2338 6.59875L25.8253 6.20724C26.4207 6.11728 26.9354 5.72846 27.2017 5.16749L28.3606 2.72601Z" stroke="#101316" stroke-opacity="0.8" stroke-linejoin="round"/>
<path d="M48.3606 2.72601C49.0312 1.31334 50.9687 1.31333 51.6393 2.72601L52.7982 5.16749C53.0645 5.72846 53.5792 6.11728 54.1746 6.20724L56.7661 6.59875C58.2655 6.82528 58.8642 8.74112 57.7792 9.84074L55.9041 11.7412C55.4732 12.1778 55.2766 12.807 55.3783 13.4235L55.821 16.107C56.0771 17.6596 54.5096 18.8437 53.1685 18.1106L50.8506 16.8437C50.3181 16.5526 49.6818 16.5526 49.1493 16.8437L46.8314 18.1106C45.4903 18.8437 43.9228 17.6596 44.1789 16.107L44.6216 13.4235C44.7233 12.807 44.5267 12.1778 44.0959 11.7412L42.2207 9.84074C41.1357 8.74113 41.7344 6.82528 43.2338 6.59875L45.8253 6.20724C46.4207 6.11728 46.9354 5.72846 47.2017 5.16749L48.3606 2.72601Z" stroke="#101316" stroke-opacity="0.8" stroke-linejoin="round"/>
</svg>
